<?xml version="1.0" encoding="iso-8859-1"?>
<!-- Generator: Adobe Illustrator 19.0.0, SVG Export Plug-In . SVG Version: 6.00 Build 0)  -->
<svg version="1.1" id="Layer_1" xmlns="http://www.w3.org/2000/svg" xmlns:xlink="http://www.w3.org/1999/xlink" x="0px" y="0px"
	 viewBox="0 0 508.14 508.14" style="enable-background:new 0 0 508.14 508.14;" xml:space="preserve">
<g>
	<polygon style="fill:#FFFFFF;" points="311.35,96.7 254.05,35 196.75,96.7 	"/>
	<polygon style="fill:#FFFFFF;" points="96.85,37.2 45.15,96.7 137.65,96.7 	"/>
	<polygon style="fill:#FFFFFF;" points="370.45,96.7 462.95,96.7 411.25,37.2 	"/>
</g>
<g>
	<polygon style="fill:#FFC10D;" points="39.65,124.9 220.95,414.5 153.25,124.9 	"/>
	<polygon style="fill:#FFC10D;" points="325.85,124.9 182.15,124.9 254.05,432 	"/>
	<polygon style="fill:#FFC10D;" points="287.15,414.6 468.45,124.9 354.85,124.9 	"/>
</g>
<g>
	<polygon style="fill:#56ACE0;" points="221.65,28.3 124.95,28.3 166.05,88.3 	"/>
	<polygon style="fill:#56ACE0;" points="383.15,28.3 286.35,28.3 342.05,88.3 	"/>
</g>
<path style="fill:#194F82;" d="M504.55,101.5l-84-96.6c-2.7-3.1-6.6-4.9-10.6-4.9H98.15c-4.1,0-8,1.8-10.6,4.9l-84,96.6
	c0,0,0.1,0,0.1,0.1c-4.1,4.3-4.7,11.2-1.4,16.7l239.8,383.2c5.6,8.5,17.8,9.2,23.9,0l239.9-383.2
	C509.15,112.4,508.65,106.5,504.55,101.5z M39.65,124.9h113.6l67.8,289.6L39.65,124.9z M96.85,37.2l40.8,59.5h-92.5L96.85,37.2z
	 M221.65,28.3l-55.6,60l-41.1-59.9h96.7V28.3z M383.15,28.3l-41.1,60l-55.6-59.9h96.7V28.3z M311.35,96.7h-114.6l57.3-61.7
	L311.35,96.7z M182.15,124.9h143.7L254.05,432L182.15,124.9z M287.15,414.6l67.8-289.6h113.6L287.15,414.6z M370.45,96.7l40.8-59.5
	l51.7,59.5H370.45z"/>
<g>
</g>
<g>
</g>
<g>
</g>
<g>
</g>
<g>
</g>
<g>
</g>
<g>
</g>
<g>
</g>
<g>
</g>
<g>
</g>
<g>
</g>
<g>
</g>
<g>
</g>
<g>
</g>
<g>
</g>
</svg>
